<svg version="1.1" viewBox="0.0 0.0 100.0 100.0" fill="none" stroke="none" stroke-linecap="square" stroke-miterlimit="10" xmlns:xlink="http://www.w3.org/1999/xlink" xmlns="http://www.w3.org/2000/svg"><clipPath id="p.0"><path d="m0 0l100.0 0l0 100.0l-100.0 0l0 -100.0z" clip-rule="nonzero"/></clipPath><g clip-path="url(#p.0)"><path fill="#000000" fill-opacity="0.0" d="m0 0l100.0 0l0 100.0l-100.0 0z" fill-rule="evenodd"/><path fill="#ffffff" d="m5.6141734 4.2047243l89.98425 0l0 91.27559l-89.98425 0z" fill-rule="evenodd"/><path stroke="#000000" stroke-width="3.0" stroke-linejoin="round" stroke-linecap="butt" d="m5.6141734 4.2047243l89.98425 0l0 91.27559l-89.98425 0z" fill-rule="evenodd"/><path fill="#000000" fill-opacity="0.0" d="m13.535433 12.771653l74.14173 0l0 74.14173l-74.14173 0z" fill-rule="evenodd"/><path stroke="#000000" stroke-width="1.0" stroke-linejoin="round" stroke-linecap="butt" d="m13.535433 12.771653l74.14173 0l0 74.14173l-74.14173 0z" fill-rule="evenodd"/><path fill="#000000" fill-opacity="0.0" d="m13.535433 8.015748l89.98425 0l0 83.65354l-89.98425 0z" fill-rule="evenodd"/><path fill="#000000" d="m37.26981 63.376995q-3.75 0 -7.187502 -1.1875q-3.421875 -1.203125 -5.296875 -3.171875l1.390625 -2.734375q1.828125 1.828125 4.84375 2.953125q3.031252 1.125 6.250002 1.125q4.515625 0 6.765625 -1.65625q2.265625 -1.65625 2.265625 -4.296875q0 -2.015625 -1.234375 -3.21875q-1.21875 -1.203125 -3.0 -1.84375q-1.765625 -0.65625 -4.9375 -1.421875q-3.796875 -0.953125 -6.062502 -1.84375q-2.25 -0.890625 -3.859375 -2.703125q-1.59375 -1.828125 -1.59375 -4.953125q0 -2.546875 1.34375 -4.625q1.34375 -2.093748 4.125 -3.343748q2.781252 -1.25 6.906252 -1.25q2.890625 0 5.640625 0.796875q2.765625 0.796875 4.78125 2.187498l-1.203125 2.828125q-2.109375 -1.390625 -4.515625 -2.078125q-2.390625 -0.703125 -4.703125 -0.703125q-4.40625 0 -6.640627 1.703125q-2.234375 1.703125 -2.234375 4.390625q0 2.015625 1.21875 3.25q1.234375 1.21875 3.078127 1.859375q1.84375 0.640625 4.96875 1.421875q3.6875 0.90625 5.96875 1.796875q2.28125 0.890625 3.859375 2.6875q1.59375 1.796875 1.59375 4.875q0 2.53125 -1.375 4.625q-1.359375 2.09375 -4.203125 3.3125q-2.828125 1.21875 -6.953125 1.21875z" fill-rule="nonzero"/><path fill="#000000" fill-opacity="0.0" d="m31.913385 17.51181l53.228348 0l0 64.661415l-53.228348 0z" fill-rule="evenodd"/><path fill="#000000" d="m58.960262 38.99806q6.437496 0 10.078121 3.078125q3.65625 3.0625 3.65625 8.4375q0 5.375 -3.65625 8.421875q-3.640625 3.046875 -10.078121 3.046875l-9.015625 0l0 10.609379l-3.5625 0l0 -33.593754l12.578125 0zm-0.09375 19.859375q4.984375 0 7.624996 -2.171875q2.640625 -2.1875 2.640625 -6.171875q0 -4.078125 -2.640625 -6.265625q-2.6406212 -2.1875 -7.624996 -2.1875l-8.921875 0l0 16.796875l8.921875 0z" fill-rule="nonzero"/><path fill="#000000" fill-opacity="0.0" d="m5.6141734 4.2047243l7.590551 8.88189" fill-rule="evenodd"/><path stroke="#000000" stroke-width="1.0" stroke-linejoin="round" stroke-linecap="butt" d="m5.6141734 4.2047243l7.590551 8.88189" fill-rule="evenodd"/><path fill="#000000" fill-opacity="0.0" d="m87.67716 86.91338l7.5905533 8.881889" fill-rule="evenodd"/><path stroke="#000000" stroke-width="1.0" stroke-linejoin="round" stroke-linecap="butt" d="m87.67716 86.91338l7.5905533 8.881889" fill-rule="evenodd"/><path fill="#000000" fill-opacity="0.0" d="m95.267715 4.2047243l-7.5905533 8.88189" fill-rule="evenodd"/><path stroke="#000000" stroke-width="1.0" stroke-linejoin="round" stroke-linecap="butt" d="m95.267715 4.2047243l-7.5905533 8.88189" fill-rule="evenodd"/><path fill="#000000" fill-opacity="0.0" d="m13.204724 86.91338l-7.590551 8.881889" fill-rule="evenodd"/><path stroke="#000000" stroke-width="1.0" stroke-linejoin="round" stroke-linecap="butt" d="m13.204724 86.91338l-7.590551 8.881889" fill-rule="evenodd"/></g></svg>